<svg width="202" height="292" viewBox="0 0 202 292" fill="none" xmlns="http://www.w3.org/2000/svg">
<path fill-rule="evenodd" clip-rule="evenodd" d="M69.9043 26.0418C75.7878 15.7831 83.4279 6.51059 95.9923 0L97.65 9.73431C100.388 5.96638 103.894 3.2021 107.758 0.907203C103.042 20.0988 113.274 24.7447 125.032 26.1294L69.9043 26.0418Z" fill="#282828" stroke="black" stroke-width="0.000477137" stroke-miterlimit="1.5" stroke-linecap="round" stroke-linejoin="round"/>
<path d="M193.835 212.115L193.83 212.118C167.211 176.632 146.583 163.579 146.583 163.579L100.982 158.093L55.3793 163.579C55.3793 163.579 34.7467 176.636 8.12162 212.134L8.11567 212.132C8.11567 212.132 7.43984 212.916 6.48833 214.32C6.47463 214.339 6.46094 214.356 6.44784 214.375L6.45082 214.377C3.80409 218.297 -0.964189 227.06 0.17191 238.091C0.17191 238.091 2.25595 233.72 6.47106 229.056C5.50764 232.667 4.97293 236.861 5.4475 241.474C5.4475 241.474 8.31395 235.442 14.157 229.988C12.5386 234.273 11.3394 239.735 11.9813 245.969C11.9813 245.969 16.2005 237.057 24.8803 231.105C24.5939 238.79 21.0385 242.149 21.0385 242.149C34.3299 240.133 36.723 230.891 36.739 230.828C37.9293 228.08 42.6827 217.965 49.8494 213.652C54.6653 210.754 60.5185 215.466 58.4779 220.577C53.977 231.85 46.2857 269.44 45.1449 292H78.2007C78.2007 292 82.0824 261.236 100.982 261.236C119.88 261.236 123.762 292 123.762 292H156.818C155.677 269.44 147.986 231.85 143.485 220.577C141.444 215.466 147.297 210.754 152.113 213.652C159.62 218.171 164.477 229.049 165.366 231.158C165.926 232.81 169.104 240.351 180.962 242.149C180.962 242.149 177.406 238.79 177.12 231.105C185.8 237.057 190.019 245.969 190.019 245.969C190.662 239.735 189.462 234.272 187.843 229.988C193.687 235.441 196.553 241.474 196.553 241.474C197.028 236.861 196.492 232.667 195.53 229.056C199.744 233.72 201.829 238.091 201.829 238.091C203.381 223.011 193.835 212.115 193.835 212.115" fill="#282828"/>
<path d="M129.919 198.881C129.919 219.532 117.246 236.276 101.611 236.276C85.9778 236.276 73.3044 219.532 73.3044 198.881C73.3044 178.228 85.9778 161.485 101.611 161.485C117.246 161.485 129.919 178.228 129.919 198.881" fill="#C4C0C0"/>
<path d="M101.318 185.366C152.126 185.366 193.314 147.51 193.314 100.812C193.314 54.1146 152.126 16.2588 101.318 16.2588C50.5108 16.2588 9.323 54.1146 9.323 100.812C9.323 147.51 50.5108 185.366 101.318 185.366Z" fill="#282828"/>
<path fill-rule="evenodd" clip-rule="evenodd" d="M101.94 81.6362C149.263 81.6362 187.683 59.73 187.683 106.187C187.683 152.643 149.263 190.36 101.94 190.36C54.6167 190.36 16.1965 152.643 16.1965 106.187C16.1965 59.73 54.6167 81.6362 101.94 81.6362V81.6362Z" fill="#282828"/>
<path fill-rule="evenodd" clip-rule="evenodd" d="M12.9376 106.138C21.3952 103.505 31.1663 110.354 34.7437 121.424C38.3217 132.494 34.3603 143.621 25.9027 146.255C17.445 148.889 7.67387 142.04 4.09587 130.97C0.517876 119.899 4.47993 108.773 12.9376 106.138V106.138Z" fill="#282828"/>
<path fill-rule="evenodd" clip-rule="evenodd" d="M11.3977 115.806C14.1391 115.291 17.1853 119.082 18.1952 124.265C19.2057 129.449 17.7998 134.076 15.0584 134.59C12.317 135.105 9.27134 131.315 8.26148 126.131C7.25102 120.947 8.65625 116.321 11.3977 115.806V115.806Z" fill="#121212"/>
<path fill-rule="evenodd" clip-rule="evenodd" d="M190.243 106.731C181.786 104.097 172.015 110.946 168.437 122.016C164.859 133.086 168.821 144.213 177.278 146.847C185.736 149.481 195.507 142.632 199.085 131.562C202.663 120.491 198.701 109.365 190.243 106.731V106.731Z" fill="#282828"/>
<path d="M74.6691 122.234C74.6691 130.434 67.8978 137.08 59.5456 137.08C51.1927 137.08 44.4214 130.434 44.4214 122.234C44.4214 114.034 51.1927 107.387 59.5456 107.387C67.8978 107.387 74.6691 114.034 74.6691 122.234Z" fill="white"/>
<path d="M72.4207 122.646C72.4207 129.652 66.6354 135.331 59.4997 135.331C52.3633 135.331 46.5786 129.652 46.5786 122.646C46.5786 115.641 52.3633 109.962 59.4997 109.962C66.6354 109.962 72.4207 115.641 72.4207 122.646Z" fill="url(#paint0_radial_1507_1657)"/>
<path fill-rule="evenodd" clip-rule="evenodd" d="M49.927 115.014C45.0003 127.897 57.2039 133.612 69.8468 130.263C70.9651 118.311 61.4089 115.919 49.927 115.014Z" fill="black"/>
<path fill-rule="evenodd" clip-rule="evenodd" d="M53.9175 119.352C54.7648 119.458 55.3644 120.22 55.2561 121.052C55.1471 121.884 54.3712 122.473 53.5233 122.366C52.676 122.259 52.0764 121.497 52.1848 120.666C52.2937 119.834 53.0696 119.245 53.9175 119.352Z" fill="white"/>
<path d="M129.718 122.234C129.718 130.434 136.489 137.08 144.841 137.08C153.194 137.08 159.966 130.434 159.966 122.234C159.966 114.034 153.194 107.387 144.841 107.387C136.489 107.387 129.718 114.034 129.718 122.234Z" fill="white"/>
<path fill-rule="evenodd" clip-rule="evenodd" d="M32.8413 75.7648C29.3896 73.1525 33.4433 68.5942 42.9852 62.6127V75.7648H32.8413Z" fill="#282828"/>
<path fill-rule="evenodd" clip-rule="evenodd" d="M100.989 22.0217C101.189 22.0206 101.388 22.0194 101.588 22.0194C145.468 22.0194 181.693 54.4472 186.732 96.202C180.701 64.3487 144.986 82.5191 101.886 82.5191C101.586 82.5191 101.287 82.5185 100.989 82.5168C100.69 82.5185 100.391 82.5191 100.092 82.5191C56.9921 82.5191 21.2765 64.3487 15.2458 96.202C20.2851 54.4472 56.5104 22.0194 100.39 22.0194C100.59 22.0194 100.79 22.0206 100.989 22.0217V22.0217Z" fill="#C4C0C0"/>
<path fill-rule="evenodd" clip-rule="evenodd" d="M37.292 79.0725C37.3122 73.7573 40.4139 68.8746 46.2236 64.3713C43.7096 70.6312 46.9179 76.459 55.1552 81.9075L37.292 79.0725Z" fill="#282828"/>
<path fill-rule="evenodd" clip-rule="evenodd" d="M83.5625 29.0207C81.5005 22.4242 83.9484 12.7898 93.4837 6.99878C91.6242 10.0922 96.2353 20.7635 111.599 25.4602L83.5625 29.0207Z" fill="#C4C0C0"/>
<path fill-rule="evenodd" clip-rule="evenodd" d="M89.8213 33.5232C89.392 25.0082 93.8941 16.9293 102.731 9.23328C99.2822 19.4691 104.886 28.5371 118.445 36.5786L89.8213 33.5232V33.5232Z" fill="#C4C0C0"/>
<path fill-rule="evenodd" clip-rule="evenodd" d="M84.6384 91.1063C84.6587 81.5672 87.7603 72.8033 93.57 64.7214C91.0561 75.9568 94.2643 86.4166 102.502 96.1947L84.6384 91.1063Z" fill="#282828"/>
<path fill-rule="evenodd" clip-rule="evenodd" d="M153.394 82.0548C153.373 75.6611 150.272 69.7877 144.463 64.3713C146.976 71.9014 143.768 78.9111 135.531 85.465L153.394 82.0548Z" fill="#282828"/>
<path fill-rule="evenodd" clip-rule="evenodd" d="M73.0336 86.0804C73.0128 80.7652 69.9111 75.8826 64.102 71.3793C66.6154 77.6391 63.4071 83.4669 55.1704 88.9154L73.0336 86.0804Z" fill="#282828"/>
<path fill-rule="evenodd" clip-rule="evenodd" d="M164.226 85.3699C165.074 79.5046 162.191 73.592 156.031 67.6373C157.99 74.9686 153.224 80.8502 142.551 85.4576L164.226 85.3699V85.3699Z" fill="#282828"/>
<path fill-rule="evenodd" clip-rule="evenodd" d="M86.1105 84.2765C84.8059 78.3019 79.3296 73.6929 70.1872 70.2844C75.1788 76.6109 72.1272 84.0842 62.0071 92.5653L86.1105 84.2765Z" fill="#282828"/>
<path fill-rule="evenodd" clip-rule="evenodd" d="M183.786 89.7997C183.765 84.4845 171.732 72.3828 165.923 67.8795C170.054 74.1393 173.357 87.8585 163.244 93.3069L183.786 89.7997Z" fill="#282828"/>
<path d="M101.603 167.55C112.608 167.55 121.529 158.793 121.529 147.989C121.529 137.186 112.608 128.428 101.603 128.428C90.5981 128.428 81.677 137.186 81.677 147.989C81.677 158.793 90.5981 167.55 101.603 167.55Z" fill="white"/>
<path d="M115.907 149.232C115.907 145.431 112.182 153.968 108.371 154.435C105.772 154.753 114.135 148.146 101.607 147.992C89.7931 147.846 97.3302 154.043 94.8323 154.004C90.978 153.944 87.3071 145.353 87.3071 149.232C87.3071 155.625 93.7087 163.494 101.607 163.494C109.505 163.494 115.907 155.625 115.907 149.232Z" fill="#282828"/>
<path d="M158.448 122.476C158.448 129.482 152.663 135.16 145.527 135.16C138.391 135.16 132.606 129.482 132.606 122.476C132.606 115.471 138.391 109.792 145.527 109.792C152.663 109.792 158.448 115.471 158.448 122.476Z" fill="url(#paint1_radial_1507_1657)"/>
<path fill-rule="evenodd" clip-rule="evenodd" d="M155.802 115.808C159.02 129.201 146.174 133.346 134.068 128.447C134.507 116.452 144.296 115.272 155.802 115.808Z" fill="black"/>
<path d="M151.264 122.648C152.119 122.648 152.813 121.967 152.813 121.128C152.813 120.289 152.119 119.608 151.264 119.608C150.409 119.608 149.716 120.289 149.716 121.128C149.716 121.967 150.409 122.648 151.264 122.648Z" fill="white"/>
<path d="M43.9483 118.63C43.8584 118.63 46.6963 107.434 59.481 107.352C72.1924 107.271 75.6376 119.757 75.2196 119.195" stroke="#3E4250" stroke-width="0.00548708" stroke-miterlimit="1.5" stroke-linecap="round" stroke-linejoin="round"/>
<path d="M129.866 117.893C129.777 117.893 131.864 106.698 144.649 106.616C157.36 106.534 160.806 119.573 160.388 119.011" stroke="#3E4250" stroke-width="0.00548708" stroke-miterlimit="1.5" stroke-linecap="round" stroke-linejoin="round"/>
<path d="M43.2154 123.625C43.1625 123.661 46.5767 137.703 59.6823 137.905C74.4308 138.133 76.2606 121.635 75.468 122.749" stroke="#3E4250" stroke-width="0.00548708" stroke-miterlimit="1.5" stroke-linecap="round" stroke-linejoin="round"/>
<path d="M130.349 126.89C130.176 126.808 132.125 138.423 145.132 138.167C158.87 137.898 161.678 123.921 160.758 124.779" stroke="#3E4250" stroke-width="0.00548708" stroke-miterlimit="1.5" stroke-linecap="round" stroke-linejoin="round"/>
<path fill-rule="evenodd" clip-rule="evenodd" d="M191.208 115.868C188.467 115.353 185.421 119.144 184.411 124.328C183.401 129.512 184.806 134.139 187.548 134.653C190.289 135.168 193.335 131.377 194.345 126.194C195.356 121.01 193.95 116.383 191.208 115.868V115.868Z" fill="#121212"/>
<path fill-rule="evenodd" clip-rule="evenodd" d="M111.218 36.2532C111.526 27.3051 115.611 23.5325 128.683 26.9386C138.903 29.6018 160.426 42.3628 167.775 52.6834C151.063 42.2219 132.201 34.7954 111.218 36.2532V36.2532Z" fill="white"/>
<path fill-rule="evenodd" clip-rule="evenodd" d="M90.5974 163.664C97.6403 176.141 105.049 176.06 112.823 163.494C105.414 168.638 98.0059 168.538 90.5974 163.664Z" fill="#F29BB1"/>
<defs>
<radialGradient id="paint0_radial_1507_1657" cx="0" cy="0" r="1" gradientUnits="userSpaceOnUse" gradientTransform="translate(59.4996 122.646) rotate(-90) scale(12.6842 12.921)">
<stop stop-color="#FFFC4E"/>
<stop offset="1" stop-color="#4E1B00"/>
</radialGradient>
<radialGradient id="paint1_radial_1507_1657" cx="0" cy="0" r="1" gradientUnits="userSpaceOnUse" gradientTransform="translate(145.527 122.476) rotate(-90) scale(12.6842 12.921)">
<stop stop-color="#FFFC4E"/>
<stop offset="1" stop-color="#4E1B00"/>
</radialGradient>
</defs>
</svg>
