<svg width="1440" height="388" viewBox="0 0 1440 388" fill="none" xmlns="http://www.w3.org/2000/svg">
<path d="M1440 0C959.996 57.3574 480.004 494.736 0 176.623V185.86C480.004 515.3 959.996 89.2554 1440 43.2228V0V0Z" fill="#F28C8F"/>
<path d="M1440 43.1343C959.996 89.1312 480.004 514.846 0 185.661V194.889C480.004 535.399 959.996 121.001 1440 86.3298V43.1343Z" fill="#F2B8A4"/>
<path d="M1440 86.2684C959.996 120.966 480.004 535.677 0 194.91V204.147C480.004 556.244 959.996 152.861 1440 129.492V86.2684V86.2684Z" fill="#F3D2B5"/>
<path d="M1440 129.403C959.996 152.833 480.004 557.275 0 204.253V213.517C480.004 577.895 959.996 184.814 1440 172.738V129.403Z" fill="#558FA7"/>
<path d="M1440 172.537C959.996 184.574 480.004 576.416 0 213.187V222.419C480.004 596.971 959.996 216.45 1440 215.742V172.537Z" fill="#2D6072"/>
</svg>
