<svg width="64" height="64" viewBox="0 0 64 64" fill="none" xmlns="http://www.w3.org/2000/svg">
<path d="M6.97629 23.392C3.15922 21.0954 3.15923 17.3719 6.9763 15.0753L25.1208 4.1583C28.9379 1.8617 35.1266 1.8617 38.9437 4.1583L57.0882 15.0753C60.9053 17.3719 60.9053 21.0954 57.0882 23.392L38.9437 34.309C35.1266 36.6056 28.9379 36.6056 25.1208 34.309L6.97629 23.392Z" fill="white"/>
<path fill-rule="evenodd" clip-rule="evenodd" d="M26.8487 5.19789L8.70415 16.1149C5.84135 17.8373 5.84134 20.63 8.70414 22.3524L26.8487 33.2694C29.7115 34.9918 34.353 34.9918 37.2158 33.2694L55.3604 22.3524C58.2232 20.63 58.2232 17.8373 55.3604 16.1149L37.2158 5.1979C34.353 3.47544 29.7115 3.47544 26.8487 5.19789ZM6.9763 15.0753C3.15923 17.3719 3.15922 21.0954 6.97629 23.392L25.1208 34.309C28.9379 36.6056 35.1266 36.6056 38.9437 34.309L57.0882 23.392C60.9053 21.0954 60.9053 17.3719 57.0882 15.0753L38.9437 4.1583C35.1266 1.8617 28.9379 1.8617 25.1208 4.1583L6.9763 15.0753Z" fill="#2E2E2E"/>
<path d="M32.5595 63.9918C34.3502 63.9918 36.329 63.6011 38.6257 62.219L50.6937 54.9568C56.1884 51.6503 60.6429 43.6092 60.6431 36.9966L60.6437 22.4731C60.6439 15.8605 56.1898 13.1804 50.6951 16.4869L38.6271 23.7491C36.0875 25.2774 33.7701 27.8171 32.012 30.7597C30.2826 27.9708 28.0517 25.5753 25.6164 24.1099L13.5484 16.8477C8.05373 13.5411 3.59961 16.2213 3.59985 22.8339L3.60038 37.3574C3.60062 43.97 8.05512 52.0111 13.5498 55.3176L25.6178 62.5798C28.3035 64.1959 29.9268 63.9918 32.5595 63.9918Z" fill="#2E2E2E"/>
<path d="M9.53358 27.3023C9.51876 24.5605 11.3592 23.4387 13.6443 24.7967L24.5067 31.2518C26.7919 32.6098 28.6563 35.9333 28.6712 38.675L28.7416 51.7081C28.7564 54.4499 26.916 55.5717 24.6308 54.2137L13.7684 47.7586C11.4833 46.4006 9.61884 43.0771 9.60402 40.3354L9.53358 27.3023Z" fill="#626262"/>
<path fill-rule="evenodd" clip-rule="evenodd" d="M24.5134 32.4929L13.651 26.0378C11.9372 25.0193 10.5569 25.8607 10.568 27.917L10.6384 40.9501C10.6495 43.0064 12.0479 45.499 13.7617 46.5175L24.6241 52.9726C26.338 53.9911 27.7183 53.1497 27.7072 51.0934L27.6368 38.0603C27.6256 36.004 26.2273 33.5114 24.5134 32.4929ZM13.6443 24.7967C11.3592 23.4387 9.51876 24.5605 9.53358 27.3023L9.60402 40.3354C9.61884 43.0771 11.4833 46.4006 13.7684 47.7586L24.6308 54.2137C26.916 55.5717 28.7564 54.4499 28.7416 51.7081L28.6712 38.675C28.6563 35.9333 26.7919 32.6098 24.5067 31.2518L13.6443 24.7967Z" fill="#626262"/>
<path d="M54.4726 26.2915C54.5068 23.5499 52.6743 22.414 50.3797 23.7543L39.4719 30.1258C37.1772 31.4662 35.2893 34.7753 35.2551 37.5168L35.0924 50.549C35.0582 53.2906 36.8907 54.4265 39.1854 53.0861L50.0931 46.7146C52.3878 45.3743 54.2757 42.0652 54.3099 39.3236L54.4726 26.2915Z" fill="#C4C4C4"/>
<path fill-rule="evenodd" clip-rule="evenodd" d="M39.4564 31.3668L50.3642 24.9954C52.0852 23.9901 53.4595 24.842 53.4339 26.8982L53.2712 39.9304C53.2456 41.9865 51.8296 44.4683 50.1086 45.4736L39.2008 51.8451C37.4798 52.8504 36.1055 51.9984 36.1312 49.9423L36.2938 36.9101C36.3194 34.8539 37.7354 32.3721 39.4564 31.3668ZM50.3797 23.7543C52.6743 22.414 54.5068 23.5499 54.4726 26.2915L54.3099 39.3236C54.2757 42.0652 52.3878 45.3743 50.0931 46.7146L39.1854 53.0861C36.8907 54.4265 35.0582 53.2906 35.0924 50.549L35.2551 37.5168C35.2893 34.7753 37.1772 31.4662 39.4719 30.1258L50.3797 23.7543Z" fill="#C4C4C4"/>
</svg>
