<svg width="256" height="256" viewBox="0 0 256 256" fill="none" xmlns="http://www.w3.org/2000/svg">
<path d="M223.301 254.307H32.4118C15.3158 254.307 1.40625 240.397 1.40625 223.301V32.4122C1.40625 15.3161 15.3158 1.40662 32.4118 1.40662H223.301C240.397 1.40662 254.306 15.3161 254.306 32.4122V223.301C254.306 240.397 240.397 254.307 223.301 254.307ZM32.4118 18.2666C24.6112 18.2666 18.2662 24.6116 18.2662 32.4122V223.301C18.2662 231.099 24.6112 237.447 32.4118 237.447H223.301C231.098 237.447 237.446 231.099 237.446 223.301V32.4122C237.446 24.6116 231.098 18.2666 223.301 18.2666H32.4118Z" fill="white"/>
<path d="M89.0499 104.309H59.9102V197.994H89.0499V104.309Z" fill="white"/>
<path d="M74.4805 91.5008C65.1513 91.5008 57.6064 83.9363 57.6064 74.6211C57.6064 65.2976 65.1513 57.7302 74.4805 57.7302C83.79 57.7302 91.3545 65.2947 91.3545 74.6211C91.3545 83.9363 83.7872 91.5008 74.4805 91.5008Z" fill="white"/>
<path d="M198.106 197.983H169.003V152.424C169.003 141.558 168.815 127.584 153.871 127.584C138.72 127.584 136.407 139.428 136.407 151.643V197.983H107.304V104.3H135.232V117.111H135.629C139.515 109.743 149.015 101.979 163.178 101.979C192.663 101.979 198.106 121.377 198.106 146.602V197.983Z" fill="white"/>
</svg>
