<svg width="38" height="36" viewBox="0 0 38 36" fill="none" xmlns="http://www.w3.org/2000/svg">
<path d="M4.10358 13.4561C1.83724 12.1482 1.84105 10.0256 4.11209 8.71499L14.9076 2.48518C17.1786 1.17461 20.8569 1.17242 23.1233 2.48027L33.8964 8.6972C36.1628 10.0051 36.159 12.1277 33.8879 13.4383L23.0924 19.6681C20.8214 20.9786 17.1431 20.9808 14.8767 19.673L4.10358 13.4561Z" fill="white"/>
<path fill-rule="evenodd" clip-rule="evenodd" d="M15.9026 3.09499L5.12948 9.31192C3.42972 10.2928 3.42972 11.8831 5.12948 12.864L15.9026 19.081C17.6024 20.0619 20.3583 20.0619 22.058 19.081L32.8312 12.864C34.5309 11.8831 34.5309 10.2928 32.8312 9.31192L22.058 3.09499C20.3583 2.1141 17.6024 2.1141 15.9026 3.09499ZM4.10359 8.7199C1.83724 10.0278 1.83724 12.1482 4.10358 13.4561L14.8767 19.673C17.1431 20.9808 20.8176 20.9808 23.0839 19.673L33.8571 13.4561C36.1234 12.1482 36.1234 10.0278 33.8571 8.7199L23.0839 2.50297C20.8176 1.19512 17.1431 1.19512 14.8767 2.50297L4.10359 8.7199Z" fill="white"/>
<path d="M19.2411 34.9813C20.3073 34.9813 21.4855 34.7746 22.853 34.0433L30.0385 30.2008C33.3101 28.4513 35.9624 24.1967 35.9625 20.6979L35.9629 13.0133C35.963 9.51454 33.3109 8.09646 30.0393 9.84598L22.8538 13.6885C21.3417 14.4971 19.9619 15.8409 18.9151 17.3978C17.8854 15.9222 16.5571 14.6548 15.1071 13.8794L7.92157 10.0369C4.64995 8.28734 1.9979 9.70542 1.99805 13.2042L1.99836 20.8887C1.9985 24.3876 4.65078 28.6422 7.92239 30.3917L15.1079 34.2342C16.707 35.0893 17.6735 34.9813 19.2411 34.9813Z" fill="#282828"/>
<path fill-rule="evenodd" clip-rule="evenodd" d="M18.9311 18.9484L18.0595 17.6033C17.096 16.1163 15.8779 14.881 14.6 14.1452L7.41451 10.0071C5.96415 9.17181 4.88734 9.22026 4.23992 9.59307C3.59625 9.96373 3.01971 10.8615 3.01978 12.5244L3.02009 20.8C3.02015 22.4585 3.61082 24.3681 4.61618 26.1049C5.6213 27.8413 6.98525 29.3087 8.42945 30.1404L15.615 34.2784C16.8025 34.9623 17.4792 34.9579 18.762 34.9494C18.9128 34.9484 19.0718 34.9473 19.2411 34.9473C20.1432 34.9473 21.1444 34.7649 22.3459 34.0729L29.5315 29.9348C30.9756 29.1031 32.3396 27.6357 33.3447 25.8994C34.3501 24.1626 34.9408 22.2529 34.9408 20.5945L34.9411 12.3188C34.9412 10.6559 34.3647 9.75816 33.721 9.38751C33.0736 9.01469 31.9968 8.96624 30.5464 9.8015L23.3609 13.9396C22.0275 14.7075 20.7602 16.0185 19.78 17.5887L18.9311 18.9484ZM18.2788 16.1373C17.3618 14.9385 16.2738 13.9234 15.1071 13.2515L7.92157 9.11342C4.64995 7.22933 1.9979 8.75649 1.99805 12.5244L1.99836 20.8001C1.9985 24.568 4.65078 29.1499 7.92239 31.034L15.1079 35.1721C16.5404 35.9971 17.4654 35.9896 18.7695 35.9791C18.9211 35.9779 19.0779 35.9766 19.2411 35.9766C20.3073 35.9766 21.4855 35.754 22.853 34.9665L30.0385 30.8284C33.3101 28.9443 35.9624 24.3624 35.9625 20.5945L35.9629 12.3189C35.963 8.55092 33.3109 7.02376 30.0393 8.90786L22.8538 13.0459C21.6245 13.7539 20.4825 14.8428 19.5359 16.1264C19.3182 16.4216 19.1108 16.7271 18.9151 17.0406C18.7139 16.7302 18.5014 16.4283 18.2788 16.1373Z" fill="#FFFCFC"/>
</svg>
